<mxfile host="app.diagrams.net" agent="Mozilla/5.0 (Windows NT 10.0; Win64; x64) AppleWebKit/537.36 (KHTML, like Gecko) Chrome/129.0.0.0 Safari/537.36" version="24.7.16">
  <diagram name="Page-1" id="X2SO9ht_rsfzw7CQz879">
    <mxGraphModel dx="1434" dy="746" grid="1" gridSize="10" guides="1" tooltips="1" connect="1" arrows="1" fold="1" page="1" pageScale="1" pageWidth="850" pageHeight="1100" math="0" shadow="0">
      <root>
        <mxCell id="0" />
        <mxCell id="1" parent="0" />
        <mxCell id="mSKB10_JaTLRmsYahyKL-29" style="edgeStyle=orthogonalEdgeStyle;rounded=0;orthogonalLoop=1;jettySize=auto;html=1;exitX=0.5;exitY=1;exitDx=0;exitDy=0;entryX=0.5;entryY=0;entryDx=0;entryDy=0;" edge="1" parent="1" source="mSKB10_JaTLRmsYahyKL-1" target="mSKB10_JaTLRmsYahyKL-28">
          <mxGeometry relative="1" as="geometry" />
        </mxCell>
        <mxCell id="mSKB10_JaTLRmsYahyKL-31" value="Create Account" style="edgeLabel;html=1;align=center;verticalAlign=middle;resizable=0;points=[];" vertex="1" connectable="0" parent="mSKB10_JaTLRmsYahyKL-29">
          <mxGeometry x="0.05" y="5" relative="1" as="geometry">
            <mxPoint x="-5" y="-1" as="offset" />
          </mxGeometry>
        </mxCell>
        <mxCell id="mSKB10_JaTLRmsYahyKL-1" value="Not Logged In" style="rounded=0;whiteSpace=wrap;html=1;" vertex="1" parent="1">
          <mxGeometry x="80" y="200" width="120" height="40" as="geometry" />
        </mxCell>
        <mxCell id="mSKB10_JaTLRmsYahyKL-2" value="" style="endArrow=classic;html=1;rounded=0;exitX=1;exitY=0.75;exitDx=0;exitDy=0;entryX=0;entryY=0.75;entryDx=0;entryDy=0;" edge="1" parent="1" source="mSKB10_JaTLRmsYahyKL-1" target="mSKB10_JaTLRmsYahyKL-3">
          <mxGeometry width="50" height="50" relative="1" as="geometry">
            <mxPoint x="400" y="410" as="sourcePoint" />
            <mxPoint x="240" y="230" as="targetPoint" />
          </mxGeometry>
        </mxCell>
        <mxCell id="mSKB10_JaTLRmsYahyKL-4" value="Log In" style="edgeLabel;html=1;align=center;verticalAlign=middle;resizable=0;points=[];" vertex="1" connectable="0" parent="mSKB10_JaTLRmsYahyKL-2">
          <mxGeometry x="-0.05" y="-1" relative="1" as="geometry">
            <mxPoint as="offset" />
          </mxGeometry>
        </mxCell>
        <mxCell id="mSKB10_JaTLRmsYahyKL-6" style="edgeStyle=orthogonalEdgeStyle;rounded=0;orthogonalLoop=1;jettySize=auto;html=1;exitX=0;exitY=0.25;exitDx=0;exitDy=0;entryX=1;entryY=0.25;entryDx=0;entryDy=0;" edge="1" parent="1" source="mSKB10_JaTLRmsYahyKL-3" target="mSKB10_JaTLRmsYahyKL-1">
          <mxGeometry relative="1" as="geometry" />
        </mxCell>
        <mxCell id="mSKB10_JaTLRmsYahyKL-7" value="Log Out" style="edgeLabel;html=1;align=center;verticalAlign=middle;resizable=0;points=[];" vertex="1" connectable="0" parent="mSKB10_JaTLRmsYahyKL-6">
          <mxGeometry x="0.15" relative="1" as="geometry">
            <mxPoint x="6" as="offset" />
          </mxGeometry>
        </mxCell>
        <mxCell id="mSKB10_JaTLRmsYahyKL-20" value="Delete Account" style="edgeStyle=orthogonalEdgeStyle;rounded=0;orthogonalLoop=1;jettySize=auto;html=1;exitX=0.5;exitY=0;exitDx=0;exitDy=0;entryX=1;entryY=0.5;entryDx=0;entryDy=0;" edge="1" parent="1" source="mSKB10_JaTLRmsYahyKL-3" target="mSKB10_JaTLRmsYahyKL-8">
          <mxGeometry x="-0.6" y="20" relative="1" as="geometry">
            <mxPoint as="offset" />
          </mxGeometry>
        </mxCell>
        <mxCell id="mSKB10_JaTLRmsYahyKL-54" style="edgeStyle=orthogonalEdgeStyle;rounded=0;orthogonalLoop=1;jettySize=auto;html=1;exitX=1;exitY=0.25;exitDx=0;exitDy=0;entryX=0;entryY=0.5;entryDx=0;entryDy=0;" edge="1" parent="1" source="mSKB10_JaTLRmsYahyKL-3" target="mSKB10_JaTLRmsYahyKL-42">
          <mxGeometry relative="1" as="geometry" />
        </mxCell>
        <mxCell id="mSKB10_JaTLRmsYahyKL-3" value="Logged In" style="rounded=0;whiteSpace=wrap;html=1;" vertex="1" parent="1">
          <mxGeometry x="280" y="200" width="120" height="40" as="geometry" />
        </mxCell>
        <mxCell id="mSKB10_JaTLRmsYahyKL-14" style="edgeStyle=orthogonalEdgeStyle;rounded=0;orthogonalLoop=1;jettySize=auto;html=1;exitX=0;exitY=0.5;exitDx=0;exitDy=0;entryX=0.5;entryY=0;entryDx=0;entryDy=0;" edge="1" parent="1" source="mSKB10_JaTLRmsYahyKL-8" target="mSKB10_JaTLRmsYahyKL-1">
          <mxGeometry relative="1" as="geometry" />
        </mxCell>
        <mxCell id="mSKB10_JaTLRmsYahyKL-17" style="edgeStyle=orthogonalEdgeStyle;rounded=0;orthogonalLoop=1;jettySize=auto;html=1;exitX=0.5;exitY=1;exitDx=0;exitDy=0;" edge="1" parent="1" source="mSKB10_JaTLRmsYahyKL-8">
          <mxGeometry relative="1" as="geometry">
            <mxPoint x="240" y="160" as="targetPoint" />
          </mxGeometry>
        </mxCell>
        <mxCell id="mSKB10_JaTLRmsYahyKL-8" value="Account Deletion" style="rounded=0;whiteSpace=wrap;html=1;" vertex="1" parent="1">
          <mxGeometry x="180" y="120" width="120" height="40" as="geometry" />
        </mxCell>
        <mxCell id="mSKB10_JaTLRmsYahyKL-15" value="Receive Payments" style="rounded=0;whiteSpace=wrap;html=1;" vertex="1" parent="1">
          <mxGeometry x="450" y="290" width="120" height="40" as="geometry" />
        </mxCell>
        <mxCell id="mSKB10_JaTLRmsYahyKL-27" value="Sell Products" style="rounded=0;whiteSpace=wrap;html=1;" vertex="1" parent="1">
          <mxGeometry x="450" y="230" width="120" height="40" as="geometry" />
        </mxCell>
        <mxCell id="mSKB10_JaTLRmsYahyKL-36" style="edgeStyle=orthogonalEdgeStyle;rounded=0;orthogonalLoop=1;jettySize=auto;html=1;exitX=1;exitY=0.5;exitDx=0;exitDy=0;entryX=0;entryY=0.5;entryDx=0;entryDy=0;" edge="1" parent="1" source="mSKB10_JaTLRmsYahyKL-28" target="mSKB10_JaTLRmsYahyKL-30">
          <mxGeometry relative="1" as="geometry" />
        </mxCell>
        <mxCell id="mSKB10_JaTLRmsYahyKL-28" value="Account Creation" style="rounded=0;whiteSpace=wrap;html=1;" vertex="1" parent="1">
          <mxGeometry x="80" y="280" width="120" height="40" as="geometry" />
        </mxCell>
        <mxCell id="mSKB10_JaTLRmsYahyKL-37" style="edgeStyle=orthogonalEdgeStyle;rounded=0;orthogonalLoop=1;jettySize=auto;html=1;exitX=0.5;exitY=0;exitDx=0;exitDy=0;entryX=0.5;entryY=1;entryDx=0;entryDy=0;" edge="1" parent="1" source="mSKB10_JaTLRmsYahyKL-30" target="mSKB10_JaTLRmsYahyKL-3">
          <mxGeometry relative="1" as="geometry" />
        </mxCell>
        <mxCell id="mSKB10_JaTLRmsYahyKL-38" value="Approved" style="edgeLabel;html=1;align=center;verticalAlign=middle;resizable=0;points=[];" vertex="1" connectable="0" parent="mSKB10_JaTLRmsYahyKL-37">
          <mxGeometry x="-0.05" y="2" relative="1" as="geometry">
            <mxPoint as="offset" />
          </mxGeometry>
        </mxCell>
        <mxCell id="mSKB10_JaTLRmsYahyKL-39" style="edgeStyle=orthogonalEdgeStyle;rounded=0;orthogonalLoop=1;jettySize=auto;html=1;exitX=0.5;exitY=1;exitDx=0;exitDy=0;entryX=0;entryY=0.5;entryDx=0;entryDy=0;" edge="1" parent="1" source="mSKB10_JaTLRmsYahyKL-30" target="mSKB10_JaTLRmsYahyKL-1">
          <mxGeometry relative="1" as="geometry" />
        </mxCell>
        <mxCell id="mSKB10_JaTLRmsYahyKL-40" value="Denied" style="edgeLabel;html=1;align=center;verticalAlign=middle;resizable=0;points=[];" vertex="1" connectable="0" parent="mSKB10_JaTLRmsYahyKL-39">
          <mxGeometry x="-0.45" y="2" relative="1" as="geometry">
            <mxPoint x="-39" y="-2" as="offset" />
          </mxGeometry>
        </mxCell>
        <mxCell id="mSKB10_JaTLRmsYahyKL-30" value="Account Approval" style="rounded=0;whiteSpace=wrap;html=1;" vertex="1" parent="1">
          <mxGeometry x="280" y="280" width="120" height="40" as="geometry" />
        </mxCell>
        <mxCell id="mSKB10_JaTLRmsYahyKL-55" style="edgeStyle=orthogonalEdgeStyle;rounded=0;orthogonalLoop=1;jettySize=auto;html=1;exitX=0.5;exitY=0;exitDx=0;exitDy=0;entryX=0.5;entryY=1;entryDx=0;entryDy=0;" edge="1" parent="1" source="mSKB10_JaTLRmsYahyKL-42" target="mSKB10_JaTLRmsYahyKL-52">
          <mxGeometry relative="1" as="geometry" />
        </mxCell>
        <mxCell id="mSKB10_JaTLRmsYahyKL-42" value="Add Products" style="rounded=0;whiteSpace=wrap;html=1;" vertex="1" parent="1">
          <mxGeometry x="450" y="170" width="120" height="40" as="geometry" />
        </mxCell>
        <mxCell id="mSKB10_JaTLRmsYahyKL-46" value="" style="endArrow=classic;startArrow=classic;html=1;rounded=0;exitX=1;exitY=0.75;exitDx=0;exitDy=0;entryX=0;entryY=0.5;entryDx=0;entryDy=0;" edge="1" parent="1" source="mSKB10_JaTLRmsYahyKL-3" target="mSKB10_JaTLRmsYahyKL-15">
          <mxGeometry width="50" height="50" relative="1" as="geometry">
            <mxPoint x="400" y="410" as="sourcePoint" />
            <mxPoint x="450" y="360" as="targetPoint" />
          </mxGeometry>
        </mxCell>
        <mxCell id="mSKB10_JaTLRmsYahyKL-47" value="" style="endArrow=classic;startArrow=classic;html=1;rounded=0;exitX=1;exitY=0.5;exitDx=0;exitDy=0;entryX=0;entryY=0.5;entryDx=0;entryDy=0;" edge="1" parent="1" source="mSKB10_JaTLRmsYahyKL-3" target="mSKB10_JaTLRmsYahyKL-27">
          <mxGeometry width="50" height="50" relative="1" as="geometry">
            <mxPoint x="400" y="410" as="sourcePoint" />
            <mxPoint x="450" y="360" as="targetPoint" />
          </mxGeometry>
        </mxCell>
        <mxCell id="mSKB10_JaTLRmsYahyKL-51" value="Seller State Diagram" style="text;html=1;align=center;verticalAlign=middle;resizable=0;points=[];autosize=1;strokeColor=none;fillColor=none;" vertex="1" parent="1">
          <mxGeometry x="75" y="38" width="130" height="30" as="geometry" />
        </mxCell>
        <mxCell id="mSKB10_JaTLRmsYahyKL-56" style="edgeStyle=orthogonalEdgeStyle;rounded=0;orthogonalLoop=1;jettySize=auto;html=1;exitX=0;exitY=0.5;exitDx=0;exitDy=0;entryX=0.75;entryY=0;entryDx=0;entryDy=0;" edge="1" parent="1" source="mSKB10_JaTLRmsYahyKL-52" target="mSKB10_JaTLRmsYahyKL-3">
          <mxGeometry relative="1" as="geometry" />
        </mxCell>
        <mxCell id="mSKB10_JaTLRmsYahyKL-57" value="Approve or Deny" style="edgeLabel;html=1;align=center;verticalAlign=middle;resizable=0;points=[];" vertex="1" connectable="0" parent="mSKB10_JaTLRmsYahyKL-56">
          <mxGeometry x="-0.3867" relative="1" as="geometry">
            <mxPoint x="-14" as="offset" />
          </mxGeometry>
        </mxCell>
        <mxCell id="mSKB10_JaTLRmsYahyKL-52" value="Product Approval" style="rounded=0;whiteSpace=wrap;html=1;" vertex="1" parent="1">
          <mxGeometry x="450" y="110" width="120" height="40" as="geometry" />
        </mxCell>
      </root>
    </mxGraphModel>
  </diagram>
</mxfile>
